<?xml version="1.0" encoding="UTF-8" standalone="no"?>
<svg width="56px" height="67px" viewBox="0 0 56 67" version="1.1" xmlns="http://www.w3.org/2000/svg" xmlns:xlink="http://www.w3.org/1999/xlink" xmlns:sketch="http://www.bohemiancoding.com/sketch/ns">
    <!-- Generator: Sketch 3.3.3 (12081) - http://www.bohemiancoding.com/sketch -->
    <title>noun_32411_cc</title>
    <desc>Created with Sketch.</desc>
    <defs></defs>
    <g id="Page-1" stroke="none" stroke-width="1" fill="none" fill-rule="evenodd" sketch:type="MSPage">
        <g id="HOME" sketch:type="MSArtboardGroup" transform="translate(-212.000000, -255.000000)" fill="#000000">
            <g id="noun_32411_cc" sketch:type="MSLayerGroup" transform="translate(212.000000, 255.000000)">
                <path d="M55.7935522,22.6850149 C55.7935522,17.7469851 51.776597,13.7300299 46.8385672,13.7300299 C41.9005373,13.7300299 37.8835821,17.7469851 37.8835821,22.6850149 C37.8835821,26.9669254 40.9067463,30.552597 44.9295522,31.4310448 C44.8969552,31.574806 44.8768955,31.7227463 44.8768955,31.8757015 L44.8768955,49.377791 C44.8768955,56.4839403 39.0963582,62.2644776 31.9918806,62.2644776 C24.8865672,62.2644776 19.1060299,56.4839403 19.1060299,49.377791 L19.1060299,46.8143284 C26.3484179,45.8238806 34.0287761,39.7817313 34.0287761,34.5954627 L34.0287761,12.9393433 C34.0287761,8.76107463 31.4912239,5.1678806 27.8771343,3.61158209 C27.3555821,1.87725373 25.7650149,0.605134328 23.8610149,0.605134328 C21.5349254,0.605134328 19.6484776,2.49074627 19.6484776,4.81767164 C19.6484776,7.14376119 21.5340896,9.03020896 23.8610149,9.03020896 C25.0712836,9.03020896 26.1545075,8.51283582 26.9226269,7.69540299 C28.7338507,8.7518806 29.9675224,10.6943284 29.9675224,12.9393433 L29.9675224,34.5962985 C29.9675224,37.487403 23.1555821,42.910209 17.1084179,42.910209 C11.0612537,42.910209 4.24931343,37.4865672 4.24931343,34.5962985 L4.24931343,12.9393433 C4.24931343,10.6993433 5.47797015,8.76023881 7.28334328,7.70208955 C8.05146269,8.5161791 9.13301493,9.03020896 10.3399403,9.03020896 C12.6660299,9.03020896 14.5524776,7.14459701 14.5524776,4.81767164 C14.5524776,2.49158209 12.6668657,0.605134328 10.3399403,0.605134328 C8.43176119,0.605134328 6.83952239,1.88143284 6.32131343,3.62077612 C2.71808955,5.18125373 0.188895522,8.76859701 0.188895522,12.9393433 L0.188895522,34.5962985 C0.188895522,39.7666866 7.82161194,45.7862687 15.0439403,46.8051343 L15.0439403,49.3786269 C15.0439403,58.7239403 22.6465672,66.3257313 31.990209,66.3257313 C41.3338507,66.3257313 48.9373134,58.7231045 48.9373134,49.377791 L48.9373134,31.8757015 C48.9373134,31.710209 48.9122388,31.551403 48.8746269,31.3976119 C52.8339104,30.4723582 55.7935522,26.9209552 55.7935522,22.6850149 L55.7935522,22.6850149 Z M46.8385672,27.5795821 C44.1397015,27.5795821 41.944,25.3838806 41.944,22.6850149 C41.944,19.9861493 44.1397015,17.7912836 46.8385672,17.7912836 C49.5374328,17.7912836 51.7331343,19.9869851 51.7331343,22.6850149 C51.7331343,25.3838806 49.5374328,27.5795821 46.8385672,27.5795821 L46.8385672,27.5795821 Z" id="Shape" sketch:type="MSShapeGroup"></path>
            </g>
        </g>
    </g>
</svg>