<?xml version="1.0" encoding="UTF-8" standalone="no"?>
<svg width="89px" height="90px" viewBox="0 0 89 90" version="1.1" xmlns="http://www.w3.org/2000/svg" xmlns:xlink="http://www.w3.org/1999/xlink" xmlns:sketch="http://www.bohemiancoding.com/sketch/ns">
    <!-- Generator: Sketch 3.3.3 (12081) - http://www.bohemiancoding.com/sketch -->
    <title>noun_64633_cc copy + noun_64633_cc copy 3</title>
    <desc>Created with Sketch.</desc>
    <defs></defs>
    <g id="Page-1" stroke="none" stroke-width="1" fill="none" fill-rule="evenodd" sketch:type="MSPage">
        <g id="HOME" sketch:type="MSArtboardGroup" transform="translate(-36.000000, -232.000000)" fill="#000000">
            <g id="noun_64633_cc-copy-+-noun_64633_cc-copy-3" sketch:type="MSLayerGroup" transform="translate(35.000000, 232.000000)">
                <g id="noun_64633_cc-copy" transform="translate(45.000000, 0.000000)" sketch:type="MSShapeGroup">
                    <path d="M23.344,1.224 C22.981,0.471 22.299,0 21.5,0 L0.400000006,0 L0.400000027,90 L21.5,90 C22.057,90 22.586,89.77 22.965,89.363 C23.342,88.957 23.535,88.411 23.496,87.857 L20.635,47.794 L20.635,42.188 L29.819,57.496 C30.096,57.956 30.546,58.286 31.067,58.411 C31.221,58.448 31.378,58.467 31.534,58.467 C31.907,58.467 32.274,58.363 32.595,58.163 L44.062,50.996 C44.91,50.464 45.236,49.385 44.82,48.473 L23.344,1.224 Z M8.23,4 L0.400001526,19.324 L0.400001526,4 L8.23,4 Z M0.400001526,86 L0.400001526,45.866 L16.672,45.866 L19.354,86 L6.301,86 L0.400001526,86 Z M20.35,33.938 C19.975,33.348 19.351,32.967 18.635,32.967 C17.53,32.967 16.635,33.863 16.635,34.967 L16.635,45.866 L0.400001526,45.866 L0.400001526,23.674 C0.400001526,23.674 3.074,23.259 3.223,22.961 L12.703,4 L20.213,4 L40.455,48.532 L32.201,53.691 L20.35,33.938 Z" id="Shape"></path>
                </g>
                <g id="noun_64633_cc-copy-3" transform="translate(23.000000, 45.000000) scale(-1, 1) translate(-23.000000, -45.000000) " sketch:type="MSShapeGroup">
                    <path d="M23.344,1.224 C22.981,0.471 22.299,0 21.5,0 L0.400000006,0 L0.400000027,90 L21.5,90 C22.057,90 22.586,89.77 22.965,89.363 C23.342,88.957 23.535,88.411 23.496,87.857 L20.635,47.794 L20.635,42.188 L29.819,57.496 C30.096,57.956 30.546,58.286 31.067,58.411 C31.221,58.448 31.378,58.467 31.534,58.467 C31.907,58.467 32.274,58.363 32.595,58.163 L44.062,50.996 C44.91,50.464 45.236,49.385 44.82,48.473 L23.344,1.224 Z M8.23,4 L0.400001526,19.324 L0.400001526,4 L8.23,4 Z M0.400001526,86 L0.400001526,45.866 L16.672,45.866 L19.354,86 L6.301,86 L0.400001526,86 Z M20.35,33.938 C19.975,33.348 19.351,32.967 18.635,32.967 C17.53,32.967 16.635,33.863 16.635,34.967 L16.635,45.866 L0.400001526,45.866 L0.400001526,23.674 C0.400001526,23.674 3.074,23.259 3.223,22.961 L12.703,4 L20.213,4 L40.455,48.532 L32.201,53.691 L20.35,33.938 Z" id="Shape"></path>
                </g>
            </g>
        </g>
    </g>
</svg>