<?xml version="1.0" encoding="UTF-8" standalone="no"?>
<svg width="27px" height="20px" viewBox="0 0 27 20" version="1.1" xmlns="http://www.w3.org/2000/svg" xmlns:xlink="http://www.w3.org/1999/xlink" xmlns:sketch="http://www.bohemiancoding.com/sketch/ns">
    <!-- Generator: Sketch 3.3.3 (12081) - http://www.bohemiancoding.com/sketch -->
    <title>noun_306_cc copy 3</title>
    <desc>Created with Sketch.</desc>
    <defs></defs>
    <g id="Page-1" stroke="none" stroke-width="1" fill="##FF4E64" fill-rule="evenodd" sketch:type="MSPage">
        <g id="HOME" sketch:type="MSArtboardGroup" transform="translate(-277.000000, -12.000000)" fill="#FF4E64">
            <g id="noun_306_cc-copy-3" sketch:type="MSLayerGroup" transform="translate(290.333333, 22.000000) scale(-1, 1) translate(-290.333333, -22.000000) translate(277.000000, 12.000000)">
                <path d="M1.06666667,12.8 L14.9333333,12.8 C15.3986667,12.8 15.7904,12.5 15.9362667,12.0842667 L15.9402667,12.0856 L19.6736,1.41893333 L19.6696,1.4176 C19.708,1.3072 19.7333333,1.1904 19.7333333,1.06666667 C19.7333333,0.4776 19.2557333,0 18.6666667,0 L1.06666667,0 C0.4776,0 0,0.4776 0,1.06666667 L0,11.7333333 C0,12.3224 0.4776,12.8 1.06666667,12.8 L1.06666667,12.8 Z M14.1765333,10.6666667 L2.13333333,10.6666667 L2.13333333,2.13333333 L17.1632,2.13333333 L14.1765333,10.6666667 L14.1765333,10.6666667 Z" id="Shape" sketch:type="MSShapeGroup"></path>
                <path d="M25.6,0 L22.1333333,0 C21.6666667,0 21.2741333,0.3016 21.1293333,0.7192 L21.1253333,0.7176 L16.5736,13.8666667 L1.06666667,13.8666667 C0.4776,13.8666667 0,14.3442667 0,14.9333333 C0,15.5224 0.4776,16 1.06666667,16 L17.3333333,16 C17.8,16 18.1925333,15.6984 18.3373333,15.2808 L18.3416,15.2824 L22.8930667,2.13333333 L25.6,2.13333333 C26.1890667,2.13333333 26.6666667,1.65573333 26.6666667,1.06666667 C26.6666667,0.4776 26.1890667,0 25.6,0 L25.6,0 Z" id="Shape" sketch:type="MSShapeGroup"></path>
                <ellipse id="Oval" sketch:type="MSShapeGroup" cx="1.6" cy="18.4" rx="1.6" ry="1.6"></ellipse>
                <ellipse id="Oval" sketch:type="MSShapeGroup" cx="16" cy="18.4" rx="1.6" ry="1.6"></ellipse>
            </g>
        </g>
    </g>
</svg>