<?xml version="1.0" encoding="UTF-8" standalone="no"?>
<svg width="64px" height="35px" viewBox="0 0 64 35" version="1.1" xmlns="http://www.w3.org/2000/svg" xmlns:xlink="http://www.w3.org/1999/xlink" xmlns:sketch="http://www.bohemiancoding.com/sketch/ns">
    <!-- Generator: Sketch 3.3.3 (12081) - http://www.bohemiancoding.com/sketch -->
    <title>noun_27776_cc</title>
    <desc>Created with Sketch.</desc>
    <defs></defs>
    <g id="Page-1" stroke="none" stroke-width="1" fill="none" fill-rule="evenodd" sketch:type="MSPage">
        <g id="HOME" sketch:type="MSArtboardGroup" transform="translate(-48.000000, -396.000000)" fill="#000000">
            <g id="noun_27776_cc" sketch:type="MSLayerGroup" transform="translate(48.000000, 396.000000)">
                <path d="M35.5787907,25.8068837 L28.2150698,25.8068837 L28.2150698,21.1981395 L23.6063256,21.1981395 L23.6063256,13.8344186 L28.2150698,13.8344186 L28.2150698,9.22567442 L35.5787907,9.22567442 L35.5787907,13.8344186 L40.1875349,13.8344186 L40.1875349,21.1981395 L35.5787907,21.1981395 L35.5787907,25.8068837 L35.5787907,25.8068837 Z M30.6403721,23.3815814 L33.1534884,23.3815814 L33.1534884,18.772093 L37.7622326,18.772093 L37.7622326,16.2597209 L33.1534884,16.2597209 L33.1534884,11.6509767 L30.6403721,11.6509767 L30.6403721,16.2597209 L26.0316279,16.2597209 L26.0316279,18.772093 L30.6403721,18.772093 L30.6403721,23.3815814 L30.6403721,23.3815814 Z" id="Shape" sketch:type="MSShapeGroup"></path>
                <path d="M58.536186,34.5242791 L5.25767442,34.5242791 L0.450976744,9.40576744 L1.17953488,8.9704186 C10.4386977,3.4344186 21.0604651,0.50827907 31.8973023,0.50827907 C42.7341395,0.50827907 53.355907,3.4344186 62.6150698,8.9704186 L63.3428837,9.40576744 L58.536186,34.5242791 L58.536186,34.5242791 Z M8.46251165,30.5989767 L55.0313488,30.7989767 L58.74,12.1232558 C50.0300465,7.08958142 42.0115349,4.43358142 31.8965581,4.43358142 C21.7815814,4.43358142 13.7623256,6.9903256 5.05311631,12.0232558 L8.46251165,30.5989767 Z" id="Shape" sketch:type="MSShapeGroup"></path>
            </g>
        </g>
    </g>
</svg>