<?xml version="1.0" encoding="UTF-8" standalone="no"?>
<svg width="71px" height="61px" viewBox="0 0 71 61" version="1.1" xmlns="http://www.w3.org/2000/svg" xmlns:xlink="http://www.w3.org/1999/xlink" xmlns:sketch="http://www.bohemiancoding.com/sketch/ns">
    <!-- Generator: Sketch 3.3.3 (12081) - http://www.bohemiancoding.com/sketch -->
    <title>noun_130747_cc copy 2 + Checkmark</title>
    <desc>Created with Sketch.</desc>
    <defs></defs>
    <g id="Page-1" stroke="none" stroke-width="1" fill="none" fill-rule="evenodd" sketch:type="MSPage">
        <g id="FAV_REMOVE" sketch:type="MSArtboardGroup" transform="translate(-125.000000, -240.000000)">
            <g id="Rectangle-99-+-noun_130747_cc-copy-2-+-Checkmark-+-понравилось" sketch:type="MSLayerGroup" transform="translate(99.000000, 223.000000)">
                <g id="noun_130747_cc-copy-2-+-Checkmark-+-понравилось" transform="translate(19.000000, 17.000000)" sketch:type="MSShapeGroup">
                    <g id="noun_130747_cc-copy-2-+-Checkmark" transform="translate(7.000000, 0.000000)">
                        <g id="noun_130747_cc-copy-2">
                            <path d="M65.746,6.50126866 C62.0031343,2.47122388 57.3775373,0.66019403 52.8610896,0.672910448 C48.9147612,0.673970149 45.0680448,2.00495522 41.7766119,4.23138806 C39.3265821,5.8908806 37.1775075,8.05373134 35.521194,10.5768806 C33.8638209,8.05479104 31.7147463,5.8919403 29.2647164,4.23138806 C25.9743433,2.00495522 22.1265672,0.673970149 18.1812985,0.672910448 C13.6648507,0.66019403 9.03819403,2.47122388 5.29638806,6.50126866 C1.89050746,10.1339254 0.303074627,14.3833284 0.315791045,18.7323433 C0.317910448,22.6511194 1.55034328,26.6207612 3.63689552,30.5024478 C5.72768657,34.385194 8.68213433,38.1969403 12.2310746,41.8232388 C16.6298955,46.3153134 22.2738657,50.8709701 26.8348209,54.3308955 C31.3947164,57.7865821 34.8673582,60.1348806 34.8843134,60.1454776 C34.892791,60.1518358 34.9033881,60.1550149 34.9118657,60.1603134 C34.963791,60.1942239 35.0188955,60.2207164 35.0729403,60.2482687 C35.1185075,60.2705224 35.1630149,60.2970149 35.2107015,60.3150299 C35.2583881,60.3330448 35.3071343,60.3447015 35.3548209,60.3584776 C35.4120448,60.3764925 35.468209,60.3945075 35.5264925,60.4061642 C35.5720597,60.4146418 35.6186866,60.4146418 35.6653134,60.4199403 C35.7267761,60.4252388 35.7861194,60.4337164 35.8475821,60.4337164 C35.8984478,60.4326567 35.9482537,60.4231194 35.9991194,60.4188806 C36.0552836,60.4125224 36.1114478,60.4093433 36.1676119,60.3976866 C36.2163582,60.3881493 36.2640448,60.3701343 36.312791,60.3552985 C36.3700149,60.3372836 36.4261791,60.3235075 36.4812836,60.300194 C36.5215522,60.2832388 36.5586418,60.2599254 36.596791,60.239791 C36.6582537,60.208 36.7197164,60.176209 36.7769403,60.137 C36.7854179,60.1317015 36.7938955,60.1285224 36.8002537,60.1232239 C36.817209,60.1115672 40.1340746,57.7653881 44.5371343,54.3118209 C48.9412537,50.8550746 54.4273284,46.3004776 58.8134328,41.8221791 C62.3623731,38.1958806 65.3168209,34.3841343 67.4065522,30.5013881 C69.4931045,26.6197015 70.7255373,22.649 70.7276567,18.7312836 C70.7393134,14.3833284 69.1518806,10.1339254 65.746,6.50126866 L65.746,6.50126866 Z" id="Shape" fill="#FF4E64"></path>
                            <g id="Oval-28-+-Back-Arrow-+-Back-Arrow-Copy-2" transform="translate(25.000000, 20.000000)" fill="#FFFFFF">
                                <path d="M9,10.5 L19.5,0 L21.5,2 L13,10.5 L21.5,19 L19.5,21 L9,10.5 Z" id="Back-Arrow"></path>
                                <path d="M12.5,10.5 L2,0 L0,2 L8.5,10.5 L0,19 L2,21 L12.5,10.5 Z" id="Back-Arrow-Copy-2"></path>
                            </g>
                        </g>
                    </g>
                </g>
            </g>
        </g>
    </g>
</svg>