<?xml version="1.0" encoding="UTF-8" standalone="no"?>
<svg width="64px" height="80px" viewBox="0 0 64 80" version="1.1" xmlns="http://www.w3.org/2000/svg" xmlns:xlink="http://www.w3.org/1999/xlink" xmlns:sketch="http://www.bohemiancoding.com/sketch/ns">
    <!-- Generator: Sketch 3.3.3 (12081) - http://www.bohemiancoding.com/sketch -->
    <title>noun_192284_cc</title>
    <desc>Created with Sketch.</desc>
    <defs></defs>
    <g id="Page-1" stroke="none" stroke-width="1" fill="none" fill-rule="evenodd" sketch:type="MSPage">
        <g id="HOME" sketch:type="MSArtboardGroup" transform="translate(-208.000000, -80.000000)" fill="#000000">
            <g id="noun_192284_cc" sketch:type="MSLayerGroup" transform="translate(208.000000, 80.000000)">
                <path d="M3.11111111,80 L23.1111111,80 C24.1777778,80 25.0666667,79.2 25.3333333,78.2222222 L32,43.0222222 L38.6666667,78.2222222 C38.8444444,79.2888889 39.8222222,80 40.8888889,80 L60.8888889,80 C61.5111111,80 62.1333333,79.7333333 62.4888889,79.2888889 C62.9333333,78.8444444 63.1111111,78.2222222 63.0222222,77.6 L56.3555556,2.04444444 C56.3555556,0.888888889 55.3777778,0 54.2222222,0 L9.77777778,0 C8.62222222,0 7.64444444,0.888888889 7.55555556,2.04444444 L0.888888889,77.6 C0.8,78.2222222 1.06666667,78.8444444 1.42222222,79.2888889 C1.86666667,79.7333333 2.48888889,80 3.11111111,80 L3.11111111,80 Z M11.8222222,4.44444444 L52.1777778,4.44444444 L58.4888889,75.5555556 L42.7555556,75.5555556 L34.2222222,30.6666667 C34.0444444,29.6 33.0666667,28.8888889 32,28.8888889 C30.9333333,28.8888889 30.0444444,29.6888889 29.7777778,30.6666667 L21.2444444,75.5555556 L5.51111111,75.5555556 L11.8222222,4.44444444 L11.8222222,4.44444444 Z" id="Shape" sketch:type="MSShapeGroup"></path>
            </g>
        </g>
    </g>
</svg>