<?xml version="1.0" encoding="UTF-8" standalone="no"?>
<svg width="70px" height="36px" viewBox="0 0 70 36" version="1.1" xmlns="http://www.w3.org/2000/svg" xmlns:xlink="http://www.w3.org/1999/xlink" xmlns:sketch="http://www.bohemiancoding.com/sketch/ns">
    <!-- Generator: Sketch 3.3.3 (12081) - http://www.bohemiancoding.com/sketch -->
    <title>noun_34031_cc</title>
    <desc>Created with Sketch.</desc>
    <defs></defs>
    <g id="Page-1" stroke="none" stroke-width="1" fill="none" fill-rule="evenodd" sketch:type="MSPage">
        <g id="HOME" sketch:type="MSArtboardGroup" transform="translate(-200.000000, -395.000000)" fill="#000000">
            <g id="noun_34031_cc" sketch:type="MSLayerGroup" transform="translate(200.000000, 395.000000)">
                <path d="M40.8280198,5.95277228 C41.0220792,6.44762376 41.1863366,7.11574257 41.3256436,8.01534653 L41.7463366,10.7585149 L44.4174257,11.510495 C47.7836634,12.4586139 51.179703,12.9409901 54.5043564,12.9409901 C58.7466337,12.9409901 62.239703,12.1758416 64.8137624,11.3247525 C66.0141584,17.2109901 65.720297,25.0932673 65.4292079,28.2280198 L65.4125743,28.430396 L65.4125743,28.6286139 L65.4125743,31.509703 L5.00742574,31.509703 L5.00742574,28.7921782 C5.46069307,27.9542574 7.79633663,26.4586139 9.93514851,25.6283168 C29.0486139,21.4574257 39.0232673,9.65861386 39.440495,9.15475248 L39.9609901,8.52544554 L40.2181188,7.74782178 C40.4322772,7.09287129 40.6388119,6.49475248 40.8280198,5.95277228 L40.8280198,5.95277228 Z M38.4306931,0.214851485 C38.4306931,0.214851485 37.5061386,2.18871287 36.12,6.39980198 C36.12,6.39980198 26.7961386,17.6344554 8.71673267,21.4789109 C8.71673267,21.4789109 0.692376238,24.3648515 0.692376238,28.6286139 L0.692376238,35.8247525 L69.7262376,35.8247525 L69.7262376,28.6293069 C69.7262376,28.6293069 71.1581188,13.2972277 67.4592079,5.44336634 C67.4592079,5.44336634 62.5467327,8.62663366 54.5043564,8.62663366 C51.8540594,8.62663366 48.8586139,8.27871287 45.5894059,7.35762376 C44.489505,0.214851485 40.259703,0.214851485 38.4306931,0.214851485 L38.4306931,0.214851485 L38.4306931,0.214851485 Z" id="Shape" sketch:type="MSShapeGroup"></path>
            </g>
        </g>
    </g>
</svg>