<?xml version="1.0" encoding="UTF-8" standalone="no"?>
<svg width="92px" height="80px" viewBox="0 0 92 80" version="1.1" xmlns="http://www.w3.org/2000/svg" xmlns:xlink="http://www.w3.org/1999/xlink" xmlns:sketch="http://www.bohemiancoding.com/sketch/ns">
    <!-- Generator: Sketch 3.3.3 (12081) - http://www.bohemiancoding.com/sketch -->
    <title>noun_11358_cc</title>
    <desc>Created with Sketch.</desc>
    <defs></defs>
    <g id="Page-1" stroke="none" stroke-width="1" fill="none" fill-rule="evenodd" sketch:type="MSPage">
        <g id="HOME" sketch:type="MSArtboardGroup" transform="translate(-34.000000, -80.000000)" fill="#000000">
            <g id="noun_11358_cc" sketch:type="MSLayerGroup" transform="translate(34.000000, 80.000000)">
                <path d="M71.965,79.963 L20.039,79.963 C18.935,79.963 18.039,79.067 18.039,77.963 L18.039,32.179 L16.768,33.451 C15.987,34.232 14.719,34.232 13.94,33.451 L1.276,20.789 C0.495,20.008 0.495,18.742 1.276,17.961 L18.613,0.624 C18.988,0.249 19.497,0.038 20.027,0.038 L20.027,0.038 L20.039,0.038 L33.002,0.038 C34.106,0.038 35.002,0.934 35.002,2.038 C35.002,8.103 39.937,13.038 46.002,13.038 C52.067,13.038 57.002,8.103 57.002,2.038 C57.002,0.934 57.898,0.038 59.002,0.038 L71.965,0.038 C72.239,0.038 72.501,0.093 72.738,0.193 C72.979,0.292 73.201,0.437 73.387,0.624 L90.724,17.962 C91.505,18.743 91.505,20.009 90.724,20.79 L78.062,33.452 C77.281,34.233 76.015,34.233 75.234,33.452 L73.965,32.184 L73.965,77.963 C73.965,79.067 73.069,79.963 71.965,79.963 L71.965,79.963 Z M22.039,75.963 L69.965,75.963 L69.965,27.355 C69.965,26.546 70.452,25.817 71.199,25.507 C71.948,25.197 72.806,25.368 73.379,25.941 L76.648,29.209 L86.483,19.375 L71.146,4.037 L60.869,4.037 C59.889,11.366 53.595,17.037 46.002,17.037 C38.408,17.037 32.115,11.366 31.135,4.037 L20.855,4.037 L5.52,19.375 L15.354,29.209 L18.625,25.937 C19.197,25.365 20.059,25.194 20.805,25.503 C21.553,25.813 22.039,26.542 22.039,27.351 L22.039,75.963 L22.039,75.963 Z" id="Shape" sketch:type="MSShapeGroup"></path>
            </g>
        </g>
    </g>
</svg>