<?xml version="1.0" encoding="UTF-8" standalone="no"?>
<svg width="32px" height="32px" viewBox="0 0 32 32" version="1.1" xmlns="http://www.w3.org/2000/svg" xmlns:xlink="http://www.w3.org/1999/xlink" xmlns:sketch="http://www.bohemiancoding.com/sketch/ns">
    <!-- Generator: Sketch 3.3.3 (12081) - http://www.bohemiancoding.com/sketch -->
    <title>Oval 25 + noun_130747_cc</title>
    <desc>Created with Sketch.</desc>
    <defs></defs>
    <g id="Page-1" stroke="none" stroke-width="1" fill="none" fill-rule="evenodd" sketch:type="MSPage">
        <g id="CATEGORY" sketch:type="MSArtboardGroup" transform="translate(-128.000000, -90.000000)">
            <g id="Oval-25-+-noun_130747_cc" sketch:type="MSLayerGroup" transform="translate(128.000000, 90.000000)">
                <circle id="Oval-25" fill-opacity="0.5" fill="#FFFFFF" sketch:type="MSShapeGroup" cx="16" cy="16" r="16"></circle>
                <g id="noun_130747_cc" transform="translate(6.000000, 7.000000)" fill="#000000" sketch:type="MSShapeGroup">
                    <path d="M18.52,1.83134328 C17.4656716,0.696119403 16.1626866,0.185970149 14.8904478,0.189552239 C13.778806,0.189850746 12.6952239,0.564776119 11.7680597,1.1919403 C11.0779104,1.65940299 10.4725373,2.26865672 10.0059701,2.97940299 C9.53910448,2.26895522 8.93373134,1.65970149 8.24358209,1.1919403 C7.31671642,0.564776119 6.23283582,0.189850746 5.12149254,0.189552239 C3.84925373,0.185970149 2.54597015,0.696119403 1.4919403,1.83134328 C0.532537313,2.85462687 0.0853731343,4.05164179 0.0889552239,5.27671642 C0.0895522388,6.38059701 0.436716418,7.49880597 1.02447761,8.59223881 C1.61343284,9.68597015 2.44567164,10.7597015 3.44537313,11.781194 C4.68447761,13.0465672 6.27432836,14.3298507 7.55910448,15.3044776 C8.84358209,16.2779104 9.82179104,16.939403 9.82656716,16.9423881 C9.82895522,16.9441791 9.8319403,16.9450746 9.83432836,16.9465672 C9.84895522,16.9561194 9.86447761,16.9635821 9.87970149,16.9713433 C9.89253731,16.9776119 9.90507463,16.9850746 9.91850746,16.9901493 C9.9319403,16.9952239 9.94567164,16.9985075 9.95910448,17.0023881 C9.97522388,17.0074627 9.99104478,17.0125373 10.0074627,17.0158209 C10.0202985,17.018209 10.0334328,17.018209 10.0465672,17.0197015 C10.0638806,17.021194 10.080597,17.0235821 10.0979104,17.0235821 C10.1122388,17.0232836 10.1262687,17.020597 10.140597,17.019403 C10.1564179,17.0176119 10.1722388,17.0167164 10.1880597,17.0134328 C10.201791,17.0107463 10.2152239,17.0056716 10.2289552,17.0014925 C10.2450746,16.9964179 10.2608955,16.9925373 10.2764179,16.9859701 C10.2877612,16.981194 10.298209,16.9746269 10.3089552,16.9689552 C10.3262687,16.96 10.3435821,16.9510448 10.3597015,16.94 C10.3620896,16.9385075 10.3644776,16.9376119 10.3662687,16.9361194 C10.3710448,16.9328358 11.3053731,16.2719403 12.5456716,15.2991045 C13.7862687,14.3253731 15.3316418,13.0423881 16.5671642,11.7808955 C17.5668657,10.759403 18.3991045,9.68567164 18.9877612,8.5919403 C19.5755224,7.49850746 19.9226866,6.38 19.9232836,5.27641791 C19.9265672,4.05164179 19.479403,2.85462687 18.52,1.83134328 L18.52,1.83134328 Z M18.1516418,8.14268657 C17.6179104,9.13552239 16.8397015,10.1459701 15.8883582,11.1173134 C14.7041791,12.3274627 13.181791,13.5943284 11.9597015,14.5528358 C11.3483582,15.0322388 10.8119403,15.4355224 10.4286567,15.718209 C10.2940299,15.8176119 10.1797015,15.901194 10.0862687,15.9689552 C9.68029851,15.6868657 8.85761194,15.1044776 7.8919403,14.3647761 C6.67432836,13.4325373 5.22985075,12.2480597 4.12328358,11.1173134 C3.1719403,10.1459701 2.39402985,9.13552239 1.86,8.14268657 C1.32507463,7.14925373 1.03731343,6.17761194 1.03791045,5.27671642 C1.04149254,4.27552239 1.37731343,3.35104478 2.18597015,2.47850746 C3.07970149,1.52507463 4.09522388,1.14179104 5.12119403,1.13850746 C6.0161194,1.13791045 6.92298507,1.4438806 7.71134328,1.97791045 C8.49940299,2.51104478 9.16358209,3.26955224 9.57641791,4.14835821 C9.57970149,4.15522388 9.5841791,4.16059701 9.58776119,4.16716418 C9.5958209,4.18208955 9.60447761,4.19671642 9.61373134,4.21074627 C9.62208955,4.22298507 9.63074627,4.23492537 9.63970149,4.24626866 C9.64955224,4.25850746 9.66029851,4.26985075 9.67134328,4.28089552 C9.68238806,4.29223881 9.69373134,4.30268657 9.70597015,4.31253731 C9.71731343,4.32179104 9.72925373,4.33044776 9.74149254,4.33850746 C9.75552239,4.3480597 9.77014925,4.35671642 9.78507463,4.36447761 C9.79164179,4.36776119 9.79701493,4.37253731 9.8038806,4.3758209 C9.81044776,4.37880597 9.81701493,4.38 9.82358209,4.38268657 C9.83910448,4.38895522 9.85462687,4.39462687 9.87104478,4.39940299 C9.88537313,4.4038806 9.89970149,4.40746269 9.91402985,4.41044776 C9.92925373,4.41343284 9.94447761,4.41522388 9.96,4.41671642 C9.97522388,4.41820896 9.99044776,4.41940299 10.0056716,4.41940299 C10.0208955,4.41940299 10.0361194,4.41820896 10.0513433,4.41671642 C10.0668657,4.41522388 10.0823881,4.41343284 10.0973134,4.41044776 C10.1116418,4.40746269 10.1259701,4.4038806 10.1402985,4.39940299 C10.1564179,4.39432836 10.1722388,4.38895522 10.1877612,4.38268657 C10.1940299,4.38 10.2008955,4.37880597 10.2074627,4.3758209 C10.2140299,4.37253731 10.2197015,4.3680597 10.2259701,4.36447761 C10.241194,4.35641791 10.2558209,4.34776119 10.2698507,4.33820896 C10.2820896,4.33014925 10.2934328,4.32179104 10.3047761,4.31283582 C10.3173134,4.30268657 10.3289552,4.29164179 10.340597,4.28 C10.3510448,4.26925373 10.361194,4.25850746 10.3707463,4.24686567 C10.380597,4.23492537 10.3895522,4.22238806 10.3985075,4.20925373 C10.4074627,4.1961194 10.4158209,4.18268657 10.4229851,4.16835821 C10.4268657,4.16149254 10.4316418,4.15552239 10.4352239,4.1480597 C10.8477612,3.26925373 11.5119403,2.51074627 12.3,1.97761194 C13.0883582,1.4438806 13.9952239,1.13791045 14.8901493,1.13820896 C15.9161194,1.14179104 16.9316418,1.52477612 17.8253731,2.47820896 C18.6340299,3.35044776 18.9698507,4.27522388 18.9734328,5.27641791 C18.9740299,6.17791045 18.6865672,7.14925373 18.1516418,8.14268657 L18.1516418,8.14268657 Z" id="Shape"></path>
                </g>
            </g>
        </g>
    </g>
</svg>