<?xml version="1.0" encoding="UTF-8" standalone="no"?>
<svg width="32px" height="32px" viewBox="0 0 32 32" version="1.1" xmlns="http://www.w3.org/2000/svg" xmlns:xlink="http://www.w3.org/1999/xlink" xmlns:sketch="http://www.bohemiancoding.com/sketch/ns">
    <!-- Generator: Sketch 3.3.3 (12081) - http://www.bohemiancoding.com/sketch -->
    <title>Oval 25 + noun_130747_cc Copy</title>
    <desc>Created with Sketch.</desc>
    <defs></defs>
    <g id="Page-1" stroke="none" stroke-width="1" fill="none" fill-rule="evenodd" sketch:type="MSPage">
        <g id="CATEGORY" sketch:type="MSArtboardGroup" transform="translate(-288.000000, -90.000000)">
            <g id="Oval-25-+-noun_130747_cc-Copy" sketch:type="MSLayerGroup" transform="translate(288.000000, 90.000000)">
                <circle id="Oval-25" fill-opacity="0.5" fill="#FFFFFF" sketch:type="MSShapeGroup" cx="16" cy="16" r="16"></circle>
                <g id="noun_130747_cc" transform="translate(6.000000, 7.000000)" fill="#FF4E64" sketch:type="MSShapeGroup">
                    <path d="M18.52,1.83134328 C17.4656716,0.696119403 16.1626866,0.185970149 14.8904478,0.189552239 C13.778806,0.189850746 12.6952239,0.564776119 11.7680597,1.1919403 C11.0779104,1.65940299 10.4725373,2.26865672 10.0059701,2.97940299 C9.53910448,2.26895522 8.93373134,1.65970149 8.24358209,1.1919403 C7.31671642,0.564776119 6.23283582,0.189850746 5.12149254,0.189552239 C3.84925373,0.185970149 2.54597015,0.696119403 1.4919403,1.83134328 C0.532537313,2.85462687 0.0853731343,4.05164179 0.0889552239,5.27671642 C0.0895522388,6.38059701 0.436716418,7.49880597 1.02447761,8.59223881 C1.61343284,9.68597015 2.44567164,10.7597015 3.44537313,11.781194 C4.68447761,13.0465672 6.27432836,14.3298507 7.55910448,15.3044776 C8.84358209,16.2779104 9.82179104,16.939403 9.82656716,16.9423881 C9.82895522,16.9441791 9.8319403,16.9450746 9.83432836,16.9465672 C9.84895522,16.9561194 9.86447761,16.9635821 9.87970149,16.9713433 C9.89253731,16.9776119 9.90507463,16.9850746 9.91850746,16.9901493 C9.9319403,16.9952239 9.94567164,16.9985075 9.95910448,17.0023881 C9.97522388,17.0074627 9.99104478,17.0125373 10.0074627,17.0158209 C10.0202985,17.018209 10.0334328,17.018209 10.0465672,17.0197015 C10.0638806,17.021194 10.080597,17.0235821 10.0979104,17.0235821 C10.1122388,17.0232836 10.1262687,17.020597 10.140597,17.019403 C10.1564179,17.0176119 10.1722388,17.0167164 10.1880597,17.0134328 C10.201791,17.0107463 10.2152239,17.0056716 10.2289552,17.0014925 C10.2450746,16.9964179 10.2608955,16.9925373 10.2764179,16.9859701 C10.2877612,16.981194 10.298209,16.9746269 10.3089552,16.9689552 C10.3262687,16.96 10.3435821,16.9510448 10.3597015,16.94 C10.3620896,16.9385075 10.3644776,16.9376119 10.3662687,16.9361194 C10.3710448,16.9328358 11.3053731,16.2719403 12.5456716,15.2991045 C13.7862687,14.3253731 15.3316418,13.0423881 16.5671642,11.7808955 C17.5668657,10.759403 18.3991045,9.68567164 18.9877612,8.5919403 C19.5755224,7.49850746 19.9226866,6.38 19.9232836,5.27641791 C19.9265672,4.05164179 19.479403,2.85462687 18.52,1.83134328 L18.52,1.83134328 Z" id="Shape"></path>
                </g>
            </g>
        </g>
    </g>
</svg>