<?xml version="1.0" encoding="UTF-8" standalone="no"?>
<svg width="24px" height="21px" viewBox="0 0 24 21" version="1.1" xmlns="http://www.w3.org/2000/svg" xmlns:xlink="http://www.w3.org/1999/xlink" xmlns:sketch="http://www.bohemiancoding.com/sketch/ns">
    <!-- Generator: Sketch 3.3.3 (12081) - http://www.bohemiancoding.com/sketch -->
    <title>noun_130747_cc</title>
    <desc>Created with Sketch.</desc>
    <defs></defs>
    <g id="Page-1" stroke="none" stroke-width="1" fill="none" fill-rule="evenodd" sketch:type="MSPage">
        <g id="HOME" sketch:type="MSArtboardGroup" transform="translate(-238.000000, -10.000000)" stroke="#FFFFFF" stroke-width="2">
            <g id="noun_130747_cc" sketch:type="MSLayerGroup" transform="translate(239.000000, 11.000000)">
                <path d="M20.372,2.01447761 C19.2122388,0.765731343 17.7789552,0.204567164 16.3794925,0.208507463 C15.1566866,0.208835821 13.9647463,0.621253731 12.9448657,1.31113433 C12.1857015,1.82534328 11.519791,2.49552239 11.0065672,3.27734328 C10.4930149,2.49585075 9.82710448,1.82567164 9.0679403,1.31113433 C8.04838806,0.621253731 6.8561194,0.208835821 5.63364179,0.208507463 C4.2341791,0.204567164 2.80056716,0.765731343 1.64113433,2.01447761 C0.585791045,3.14008955 0.0939104478,4.45680597 0.0978507463,5.80438806 C0.0985074627,7.01865672 0.48038806,8.24868657 1.12692537,9.45146269 C1.77477612,10.6545672 2.69023881,11.8356716 3.78991045,12.9593134 C5.15292537,14.3512239 6.90176119,15.7628358 8.31501493,16.8349254 C9.7279403,17.9057015 10.8039701,18.6333433 10.8092239,18.6366269 C10.8118507,18.638597 10.8151343,18.6395821 10.8177612,18.6412239 C10.8338507,18.6517313 10.8509254,18.6599403 10.8676716,18.6684776 C10.881791,18.6753731 10.8955821,18.6835821 10.9103582,18.6891642 C10.9251343,18.6947463 10.9402388,18.6983582 10.9550149,18.7026269 C10.9727463,18.708209 10.9901493,18.713791 11.008209,18.717403 C11.0223284,18.7200299 11.0367761,18.7200299 11.0512239,18.7216716 C11.0702687,18.7233134 11.0886567,18.7259403 11.1077015,18.7259403 C11.1234627,18.7256119 11.1388955,18.7226567 11.1546567,18.7213433 C11.1720597,18.7193731 11.1894627,18.7183881 11.2068657,18.7147761 C11.2219701,18.7118209 11.2367463,18.7062388 11.2518507,18.7016418 C11.2695821,18.6960597 11.2869851,18.691791 11.3040597,18.6845672 C11.3165373,18.6793134 11.3280299,18.6720896 11.3398507,18.6658507 C11.3588955,18.656 11.3779403,18.6461493 11.3956716,18.634 C11.3982985,18.6323582 11.4009254,18.6313731 11.4028955,18.6297313 C11.4081493,18.6261194 12.4359104,17.8991343 13.8002388,16.8290149 C15.1648955,15.7579104 16.864806,14.3466269 18.2238806,12.9589851 C19.3235522,11.8353433 20.2390149,10.6542388 20.8865373,9.45113433 C21.5330746,8.24835821 21.9149552,7.018 21.9156119,5.8040597 C21.9192239,4.45680597 21.4273433,3.14008955 20.372,2.01447761 L20.372,2.01447761 Z" id="Shape" sketch:type="MSShapeGroup"></path>
            </g>
        </g>
    </g>
</svg>