<?xml version="1.0" encoding="UTF-8" standalone="no"?>
<svg width="40px" height="41px" viewBox="0 0 40 41" version="1.1" xmlns="http://www.w3.org/2000/svg" xmlns:xlink="http://www.w3.org/1999/xlink" xmlns:sketch="http://www.bohemiancoding.com/sketch/ns">
    <!-- Generator: Sketch 3.3.3 (12081) - http://www.bohemiancoding.com/sketch -->
    <title>noun_70785_cc</title>
    <desc>Created with Sketch.</desc>
    <defs></defs>
    <g id="Page-1" stroke="none" stroke-width="1" fill="none" fill-rule="evenodd" sketch:type="MSPage">
        <g id="ITEM_DETAIL" sketch:type="MSArtboardGroup" transform="translate(-16.000000, -259.000000)" fill="#000000">
            <g id="noun_70785_cc" sketch:type="MSLayerGroup" transform="translate(36.000000, 279.507042) scale(-1, 1) translate(-36.000000, -279.507042) translate(16.000000, 259.007042)">
                <path d="M18.028169,36.056338 C22.4507042,36.056338 26.503662,34.4529577 29.6439437,31.8005634 L37.7949296,39.9515493 C38.0146479,40.171831 38.3030986,40.2816901 38.5915493,40.2816901 C38.88,40.2816901 39.1684507,40.171831 39.388169,39.9515493 C39.828169,39.5115493 39.828169,38.7983099 39.388169,38.3583099 L31.2726761,30.2428169 C34.2394366,27.028169 36.056338,22.7369014 36.056338,18.028169 C36.056338,8.08732394 27.9690141,0 18.028169,0 C8.08732394,0 0,8.08732394 0,18.028169 C0,27.9690141 8.08732394,36.056338 18.028169,36.056338 L18.028169,36.056338 Z M18.028169,2.25352113 C26.7261972,2.25352113 33.8028169,9.33014085 33.8028169,18.028169 C33.8028169,26.7261972 26.7261972,33.8028169 18.028169,33.8028169 C9.33014085,33.8028169 2.25352113,26.7261972 2.25352113,18.028169 C2.25352113,9.33014085 9.33014085,2.25352113 18.028169,2.25352113 L18.028169,2.25352113 Z" id="Shape" sketch:type="MSShapeGroup"></path>
                <path d="M10.1408451,19.1549296 L16.9014085,19.1549296 L16.9014085,25.915493 C16.9014085,26.5374648 17.4061972,27.0422535 18.028169,27.0422535 C18.6501408,27.0422535 19.1549296,26.5374648 19.1549296,25.915493 L19.1549296,19.1549296 L25.915493,19.1549296 C26.5374648,19.1549296 27.0422535,18.6501408 27.0422535,18.028169 C27.0422535,17.4061972 26.5374648,16.9014085 25.915493,16.9014085 L19.1549296,16.9014085 L19.1549296,10.1408451 C19.1549296,9.51887324 18.6501408,9.01408451 18.028169,9.01408451 C17.4061972,9.01408451 16.9014085,9.51887324 16.9014085,10.1408451 L16.9014085,16.9014085 L10.1408451,16.9014085 C9.51887324,16.9014085 9.01408451,17.4061972 9.01408451,18.028169 C9.01408451,18.6501408 9.51887324,19.1549296 10.1408451,19.1549296 L10.1408451,19.1549296 Z" id="Shape" sketch:type="MSShapeGroup"></path>
            </g>
        </g>
    </g>
</svg>